<mxfile host="Electron" modified="2024-06-05T19:45:13.264Z" agent="Mozilla/5.0 (Macintosh; Intel Mac OS X 10_15_7) AppleWebKit/537.36 (KHTML, like Gecko) draw.io/24.4.13 Chrome/124.0.6367.207 Electron/30.0.6 Safari/537.36" etag="kGFEdeuiVSolWJX5syon" version="24.4.13" type="device">
  <diagram id="C5RBs43oDa-KdzZeNtuy" name="Page-1">
    <mxGraphModel dx="1026" dy="680" grid="1" gridSize="10" guides="1" tooltips="1" connect="1" arrows="1" fold="1" page="1" pageScale="1" pageWidth="827" pageHeight="1169" math="0" shadow="0">
      <root>
        <mxCell id="WIyWlLk6GJQsqaUBKTNV-0" />
        <mxCell id="WIyWlLk6GJQsqaUBKTNV-1" parent="WIyWlLk6GJQsqaUBKTNV-0" />
        <mxCell id="7xgUiTttZdGV0sDnv-I--3" value="" style="group" vertex="1" connectable="0" parent="WIyWlLk6GJQsqaUBKTNV-1">
          <mxGeometry x="490" y="190" width="120" height="80" as="geometry" />
        </mxCell>
        <mxCell id="7xgUiTttZdGV0sDnv-I--1" value="GitHub Public Repository" style="ellipse;shape=cloud;whiteSpace=wrap;html=1;" vertex="1" parent="7xgUiTttZdGV0sDnv-I--3">
          <mxGeometry width="120" height="80" as="geometry" />
        </mxCell>
        <mxCell id="7xgUiTttZdGV0sDnv-I--2" value="" style="verticalLabelPosition=bottom;html=1;verticalAlign=top;align=center;strokeColor=none;fillColor=#00BEF2;shape=mxgraph.azure.github_code;pointerEvents=1;" vertex="1" parent="7xgUiTttZdGV0sDnv-I--3">
          <mxGeometry x="90" width="30" height="30" as="geometry" />
        </mxCell>
        <mxCell id="7xgUiTttZdGV0sDnv-I--13" style="edgeStyle=orthogonalEdgeStyle;rounded=0;orthogonalLoop=1;jettySize=auto;html=1;entryX=0.5;entryY=0;entryDx=0;entryDy=0;" edge="1" parent="WIyWlLk6GJQsqaUBKTNV-1" source="7xgUiTttZdGV0sDnv-I--4" target="7xgUiTttZdGV0sDnv-I--5">
          <mxGeometry relative="1" as="geometry" />
        </mxCell>
        <mxCell id="7xgUiTttZdGV0sDnv-I--16" style="edgeStyle=orthogonalEdgeStyle;rounded=0;orthogonalLoop=1;jettySize=auto;html=1;entryX=0.5;entryY=0;entryDx=0;entryDy=0;exitX=1;exitY=0.5;exitDx=0;exitDy=0;dashed=1;" edge="1" parent="WIyWlLk6GJQsqaUBKTNV-1" source="7xgUiTttZdGV0sDnv-I--4" target="7xgUiTttZdGV0sDnv-I--9">
          <mxGeometry relative="1" as="geometry" />
        </mxCell>
        <mxCell id="7xgUiTttZdGV0sDnv-I--4" value="Fetch Pull Requests" style="rounded=0;whiteSpace=wrap;html=1;" vertex="1" parent="WIyWlLk6GJQsqaUBKTNV-1">
          <mxGeometry x="140" y="130" width="120" height="60" as="geometry" />
        </mxCell>
        <mxCell id="7xgUiTttZdGV0sDnv-I--5" value="Format Email" style="rounded=0;whiteSpace=wrap;html=1;" vertex="1" parent="WIyWlLk6GJQsqaUBKTNV-1">
          <mxGeometry x="140" y="450" width="120" height="60" as="geometry" />
        </mxCell>
        <mxCell id="7xgUiTttZdGV0sDnv-I--6" value="Print and Send Email" style="rounded=0;whiteSpace=wrap;html=1;" vertex="1" parent="WIyWlLk6GJQsqaUBKTNV-1">
          <mxGeometry x="140" y="600" width="120" height="60" as="geometry" />
        </mxCell>
        <mxCell id="7xgUiTttZdGV0sDnv-I--17" value="" style="edgeStyle=orthogonalEdgeStyle;rounded=0;orthogonalLoop=1;jettySize=auto;html=1;dashed=1;" edge="1" parent="WIyWlLk6GJQsqaUBKTNV-1" source="7xgUiTttZdGV0sDnv-I--9" target="7xgUiTttZdGV0sDnv-I--12">
          <mxGeometry relative="1" as="geometry" />
        </mxCell>
        <mxCell id="7xgUiTttZdGV0sDnv-I--9" value="Use the GitHub API to fetch open and closed pull requests from the specified repository." style="rounded=0;whiteSpace=wrap;html=1;verticalAlign=middle;" vertex="1" parent="WIyWlLk6GJQsqaUBKTNV-1">
          <mxGeometry x="260" y="220" width="190" height="70" as="geometry" />
        </mxCell>
        <mxCell id="7xgUiTttZdGV0sDnv-I--18" style="edgeStyle=orthogonalEdgeStyle;rounded=0;orthogonalLoop=1;jettySize=auto;html=1;entryX=0.5;entryY=0;entryDx=0;entryDy=0;dashed=1;" edge="1" parent="WIyWlLk6GJQsqaUBKTNV-1" source="7xgUiTttZdGV0sDnv-I--12" target="7xgUiTttZdGV0sDnv-I--5">
          <mxGeometry relative="1" as="geometry">
            <Array as="points">
              <mxPoint x="355" y="420" />
              <mxPoint x="200" y="420" />
            </Array>
          </mxGeometry>
        </mxCell>
        <mxCell id="7xgUiTttZdGV0sDnv-I--12" value="Filter the PR&#39;s to include only those created in the last week." style="rounded=0;whiteSpace=wrap;html=1;verticalAlign=middle;" vertex="1" parent="WIyWlLk6GJQsqaUBKTNV-1">
          <mxGeometry x="260" y="310" width="190" height="70" as="geometry" />
        </mxCell>
      </root>
    </mxGraphModel>
  </diagram>
</mxfile>
